<svg width="10" height="10" viewBox="0 0 10 10" fill="none" xmlns="http://www.w3.org/2000/svg">
  <path fill-rule="evenodd" clip-rule="evenodd"
    d="M1.93549 0.953398C1.66429 0.682201 1.2246 0.682201 0.953398 0.953398C0.682201 1.2246 0.682201 1.66429 0.953398 1.93549L4.01791 5L0.953398 8.06451C0.6822 8.33571 0.682201 8.7754 0.953398 9.0466C1.2246 9.3178 1.66429 9.3178 1.93549 9.0466L5 5.98209L8.06451 9.0466C8.33571 9.3178 8.7754 9.3178 9.0466 9.0466C9.3178 8.7754 9.3178 8.33571 9.0466 8.06451L5.98209 5L9.0466 1.93549C9.3178 1.66429 9.3178 1.2246 9.0466 0.953398C8.7754 0.682201 8.33571 0.6822 8.06451 0.953398L5 4.01791L1.93549 0.953398Z"
    fill="#070F18" />
</svg>