<svg width="16" height="16" viewBox="0 0 16 16" fill="none" xmlns="http://www.w3.org/2000/svg">
<g id="Credit card">
<g id="Icon">
<path d="M3.20001 3.20001C2.31635 3.20001 1.60001 3.91636 1.60001 4.80001V5.60001H14.4V4.80001C14.4 3.91636 13.6837 3.20001 12.8 3.20001H3.20001Z" fill="#5A607D"/>
<path fill-rule="evenodd" clip-rule="evenodd" d="M14.4 7.20001H1.60001V11.2C1.60001 12.0837 2.31635 12.8 3.20001 12.8H12.8C13.6837 12.8 14.4 12.0837 14.4 11.2V7.20001ZM3.20001 10.4C3.20001 9.95818 3.55818 9.60001 4.00001 9.60001H4.8C5.24183 9.60001 5.6 9.95818 5.6 10.4C5.6 10.8418 5.24183 11.2 4.8 11.2H4.00001C3.55818 11.2 3.20001 10.8418 3.20001 10.4ZM7.2 9.60001C6.75818 9.60001 6.4 9.95818 6.4 10.4C6.4 10.8418 6.75818 11.2 7.2 11.2H8C8.44183 11.2 8.8 10.8418 8.8 10.4C8.8 9.95818 8.44183 9.60001 8 9.60001H7.2Z" fill="#5A607D"/>
</g>
</g>
</svg>
