<svg width="16" height="16" viewBox="0 0 16 16" fill="none" xmlns="http://www.w3.org/2000/svg">
<g id="Document">
<path id="Icon (Stroke)" fill-rule="evenodd" clip-rule="evenodd" d="M4.66669 2.66668C4.2985 2.66668 4.00002 2.96515 4.00002 3.33334V12.6667C4.00002 13.0349 4.2985 13.3333 4.66669 13.3333H11.3334C11.7015 13.3333 12 13.0349 12 12.6667V6.27615L8.39054 2.66668H4.66669ZM2.66669 3.33334C2.66669 2.22877 3.56212 1.33334 4.66669 1.33334H8.39054C8.74417 1.33334 9.0833 1.47382 9.33335 1.72387L12.9428 5.33334C13.1929 5.58339 13.3334 5.92253 13.3334 6.27615V12.6667C13.3334 13.7712 12.4379 14.6667 11.3334 14.6667H4.66669C3.56212 14.6667 2.66669 13.7712 2.66669 12.6667V3.33334Z" fill="#4FAE70"/>
</g>
</svg>
