<svg width="16" height="16" viewBox="0 0 16 16" fill="none" xmlns="http://www.w3.org/2000/svg">
<g id="Information circle">
<path id="Icon (Stroke)" fill-rule="evenodd" clip-rule="evenodd" d="M8 2.66667C5.05448 2.66667 2.66667 5.05448 2.66667 8C2.66667 10.9455 5.05448 13.3333 8 13.3333C10.9455 13.3333 13.3333 10.9455 13.3333 8C13.3333 5.05448 10.9455 2.66667 8 2.66667ZM1.33334 8C1.33334 4.3181 4.3181 1.33334 8 1.33334C11.6819 1.33334 14.6667 4.3181 14.6667 8C14.6667 11.6819 11.6819 14.6667 8 14.6667C4.3181 14.6667 1.33334 11.6819 1.33334 8ZM7.33334 5.33334C7.33334 4.96515 7.63181 4.66667 8 4.66667H8.00667C8.37486 4.66667 8.67334 4.96515 8.67334 5.33334C8.67334 5.70153 8.37486 6 8.00667 6H8C7.63181 6 7.33334 5.70153 7.33334 5.33334ZM6.66667 8C6.66667 7.63181 6.96515 7.33334 7.33334 7.33334H8C8.36819 7.33334 8.66667 7.63181 8.66667 8V10C9.03486 10 9.33334 10.2985 9.33334 10.6667C9.33334 11.0349 9.03486 11.3333 8.66667 11.3333H8C7.63181 11.3333 7.33334 11.0349 7.33334 10.6667V8.66667C6.96515 8.66667 6.66667 8.36819 6.66667 8Z" fill="#5A607D"/>
</g>
</svg>
