<svg width="16" height="16" viewBox="0 0 16 16" fill="none" xmlns="http://www.w3.org/2000/svg">
<g id="Plus">
<path id="Icon" fill-rule="evenodd" clip-rule="evenodd" d="M8.00002 2.4C8.44185 2.4 8.80002 2.75817 8.80002 3.2V7.2H12.8C13.2419 7.2 13.6 7.55817 13.6 8C13.6 8.44183 13.2419 8.8 12.8 8.8H8.80002V12.8C8.80002 13.2418 8.44185 13.6 8.00002 13.6C7.5582 13.6 7.20002 13.2418 7.20002 12.8V8.8H3.20002C2.7582 8.8 2.40002 8.44183 2.40002 8C2.40002 7.55817 2.7582 7.2 3.20002 7.2L7.20002 7.2V3.2C7.20002 2.75817 7.5582 2.4 8.00002 2.4Z" fill="#6367F6"/>
</g>
</svg>
